<?xml version="1.0" standalone="no"?>
<!DOCTYPE svg PUBLIC "-//W3C//DTD SVG 20010904//EN"
 "http://www.w3.org/TR/2001/REC-SVG-20010904/DTD/svg10.dtd">
<svg version="1.0" xmlns="http://www.w3.org/2000/svg"
 width="700.000000pt" height="700.000000pt" viewBox="0 0 700.000000 700.000000"
 preserveAspectRatio="xMidYMid meet">
<metadata>
Created by potrace 1.11, written by Peter Selinger 2001-2013
</metadata>
<g transform="translate(0.000000,700.000000) scale(0.100000,-0.100000)"
fill="#000000" stroke="none">
<path d="M3428 6981 c-115 -58 -261 -192 -360 -328 -47 -65 -68 -107 -98 -196
-21 -62 -42 -139 -47 -172 -10 -69 -9 -318 1 -385 4 -25 11 -70 16 -100 32
-199 32 -450 0 -620 -6 -30 -13 -68 -16 -85 -3 -16 -14 -66 -25 -110 -12 -44
-22 -88 -24 -97 -20 -99 -220 -556 -278 -632 -13 -17 -15 -15 -30 30 -85 266
-65 446 71 642 43 61 43 63 28 87 -21 32 -43 31 -92 -1 -140 -93 -286 -320
-419 -649 -32 -77 -59 -142 -61 -144 -10 -11 -123 77 -223 174 -142 138 -224
239 -267 330 -38 80 -102 253 -110 299 -3 17 -9 49 -14 70 -5 22 -7 123 -6
225 3 147 8 206 25 281 27 119 40 160 51 160 5 0 12 10 16 23 14 47 77 164
117 217 50 67 150 166 195 194 8 5 32 -5 65 -28 66 -45 140 -54 225 -25 107
35 184 47 267 43 151 -9 157 -8 188 26 20 22 27 41 27 71 0 37 -6 47 -62 103
-133 133 -192 153 -458 158 -107 1 -215 -1 -240 -5 -165 -29 -364 -144 -482
-278 -86 -98 -98 -113 -145 -188 -157 -250 -214 -603 -158 -990 24 -167 100
-401 186 -574 119 -240 226 -398 361 -534 l62 -62 -27 -53 c-40 -80 -64 -158
-72 -234 -4 -38 -9 -78 -11 -89 -7 -33 -6 -175 1 -250 l6 -70 -185 -185 c-102
-102 -186 -188 -186 -193 0 -4 104 -112 231 -240 237 -238 254 -259 288 -372
16 -51 48 -139 71 -190 9 -22 21 -51 25 -65 30 -102 203 -391 304 -508 129
-151 349 -346 421 -374 9 -3 56 -29 105 -57 49 -28 95 -51 102 -51 21 0 103
-41 103 -52 0 -5 -15 -27 -32 -48 -45 -52 -113 -184 -127 -246 -25 -105 -8
-216 46 -316 68 -125 296 -318 376 -318 10 0 -10 29 -51 74 -59 65 -155 201
-180 256 -16 36 -26 77 -28 121 -3 57 0 71 23 105 15 21 42 54 62 72 44 40
177 106 246 121 l50 10 157 -159 156 -160 74 80 c40 45 110 120 155 167 81 86
82 86 123 80 47 -6 236 -96 280 -133 36 -31 60 -101 60 -178 0 -93 -54 -195
-187 -354 -29 -34 -53 -64 -53 -67 0 -11 81 34 145 81 147 109 226 217 255
351 18 81 18 94 5 157 -18 85 -52 161 -111 243 -44 61 -45 65 -29 83 10 11 45
29 80 40 34 11 89 37 121 56 33 20 80 46 105 59 25 13 68 42 97 64 28 23 55
41 59 41 8 0 178 171 238 240 17 19 51 62 75 95 25 33 48 62 53 63 4 2 7 10 7
18 0 8 4 14 9 14 5 0 11 8 15 18 3 9 17 35 31 57 23 36 109 207 148 295 9 19
38 101 65 181 28 81 57 161 66 177 9 17 111 126 226 243 116 116 210 214 210
218 0 3 -61 69 -135 146 -74 76 -135 147 -135 156 0 10 5 30 10 45 21 55 37
211 35 347 -3 228 -54 382 -169 504 -88 95 -129 119 -248 148 -57 13 -120 27
-142 29 -21 3 -40 7 -42 9 -2 2 15 33 39 68 205 307 342 622 371 852 25 194
26 461 3 602 -25 151 -25 152 -63 249 -100 260 -261 454 -476 574 -36 21 -141
62 -173 68 -11 2 -31 6 -45 9 -85 17 -101 17 -295 10 -77 -3 -158 -10 -180
-16 -74 -20 -157 -70 -224 -135 -64 -62 -66 -66 -66 -114 0 -40 5 -55 25 -75
28 -28 31 -28 180 -21 108 5 181 -5 270 -39 86 -32 166 -19 234 40 16 14 32
25 35 25 10 0 92 -69 135 -113 76 -78 114 -132 165 -235 86 -172 120 -331 115
-535 -5 -187 -31 -298 -116 -502 -55 -130 -220 -375 -253 -375 -4 0 -5 36 -2
80 4 67 10 88 37 132 18 29 50 68 71 86 80 69 25 141 -59 79 -61 -46 -137
-137 -174 -212 -29 -57 -88 -235 -88 -266 0 -37 -17 -11 -35 53 -36 129 -131
350 -220 513 -99 182 -281 431 -430 591 -86 92 -122 133 -205 229 -52 61 -135
155 -185 211 -49 55 -110 122 -134 149 -101 114 -129 171 -135 278 -8 126 118
319 276 425 33 22 37 28 32 55 -3 17 -7 34 -10 36 -12 12 -44 9 -76 -8z m1322
-397 c180 -39 345 -152 498 -340 23 -29 42 -55 42 -59 0 -3 11 -21 25 -40 42
-55 123 -268 144 -381 34 -181 31 -423 -10 -614 -39 -184 -61 -260 -109 -377
-40 -95 -140 -292 -164 -323 -6 -8 -19 -29 -28 -46 -10 -17 -43 -69 -75 -115
-46 -66 -63 -84 -83 -85 -14 -1 -48 -4 -76 -7 l-52 -7 -35 98 c-20 53 -41 117
-47 140 -12 47 -14 43 49 111 73 79 196 272 242 379 36 84 68 183 79 243 6 32
13 71 15 86 24 125 23 253 -2 423 -16 107 -20 123 -57 219 -70 181 -171 321
-303 420 -58 43 -59 45 -58 92 0 26 -5 53 -12 60 -9 9 -15 -1 -28 -44 -18 -64
-44 -101 -85 -122 -40 -20 -130 -25 -157 -8 -12 8 -59 24 -105 35 -69 17 -103
19 -199 15 -80 -4 -120 -2 -128 6 -34 34 14 109 115 176 84 56 129 69 279 76
60 4 111 8 113 10 8 7 142 -5 212 -21z m-2525 -92 c144 -11 189 -25 272 -89
85 -65 118 -117 96 -152 -9 -13 -34 -16 -159 -17 -124 -1 -160 -5 -216 -23
-38 -12 -68 -25 -68 -29 0 -4 -26 -7 -58 -6 -100 3 -149 43 -178 142 -19 66
-38 57 -39 -17 0 -49 -1 -49 -71 -104 -190 -149 -334 -421 -369 -697 -14 -104
-13 -337 2 -422 49 -295 117 -441 287 -625 77 -82 255 -224 376 -300 228 -142
557 -260 803 -289 29 -3 72 -10 97 -14 71 -14 553 -10 650 5 47 7 108 16 135
20 28 3 59 8 70 10 11 3 31 7 45 9 105 19 160 31 260 57 63 17 124 32 135 35
11 2 106 31 210 63 286 90 346 103 515 106 220 4 338 -34 451 -145 113 -111
182 -315 174 -515 -7 -163 -27 -321 -44 -338 -7 -7 -49 29 -129 110 l-120 120
-6 89 c-12 185 -40 248 -140 311 -65 41 -131 57 -246 57 -133 1 -267 -31 -627
-150 -149 -49 -450 -122 -573 -138 -25 -3 -90 -13 -145 -21 -55 -9 -149 -20
-210 -26 -108 -9 -446 -12 -515 -4 -136 17 -177 24 -325 61 -215 52 -419 134
-605 241 -145 83 -341 262 -429 390 -206 303 -296 505 -367 828 -24 107 -27
142 -27 325 -1 113 2 230 7 260 10 73 79 277 123 365 61 123 199 290 303 367
98 73 250 138 355 152 27 4 51 8 52 10 4 3 103 -1 248 -12z m883 -33 c2 -79
42 -190 85 -237 l22 -23 1 -1160 c1 -841 -2 -1159 -10 -1160 -15 -2 -12 -2
-91 5 -90 9 -233 26 -265 31 -14 3 -38 8 -55 10 -55 10 -110 26 -147 42 -36
15 -36 15 -33 70 3 44 14 73 57 151 122 219 193 375 261 572 32 92 81 271 93
338 2 12 6 34 9 50 37 199 37 479 -1 675 -19 95 -26 317 -13 415 11 83 66 265
78 258 4 -3 8 -20 9 -37z m978 -1291 c102 -152 226 -391 283 -543 58 -157 153
-517 140 -529 -14 -12 -464 -130 -537 -141 l-42 -6 1 713 1 713 34 -40 c19
-22 73 -97 120 -167z m-2311 -1297 c3 -6 25 -20 50 -32 24 -12 60 -35 79 -51
32 -27 35 -32 31 -76 -2 -27 -23 -95 -45 -153 -39 -101 -44 -108 -134 -198
l-95 -94 -7 37 c-6 34 0 220 10 291 12 90 29 155 57 217 31 66 42 78 54 59z
m3383 -108 c47 -23 102 -76 102 -98 0 -4 7 -13 16 -19 11 -8 16 -35 19 -95 2
-47 1 -80 -4 -75 -4 5 -41 52 -81 104 -41 52 -98 121 -127 153 -29 32 -53 62
-53 67 0 12 67 -7 128 -37z m-626 -65 c2 -7 3 -491 2 -1075 -1 -892 -3 -1064
-15 -1076 -8 -8 -49 -52 -91 -99 -57 -63 -93 -92 -140 -116 -65 -33 -236 -89
-298 -98 -19 -3 -41 -7 -48 -9 -10 -4 -12 229 -10 1157 3 1023 5 1161 18 1163
70 12 401 105 510 144 67 24 67 24 72 9z m-1817 -213 c108 -18 168 -24 341
-31 l160 -7 1 -1167 0 -1166 -51 -21 -51 -22 -250 250 -250 251 -1 956 c0 526
1 961 3 965 3 4 19 5 36 2 18 -3 46 -7 62 -10z m-828 -645 c0 -280 -2 -510 -6
-510 -10 0 -515 509 -510 514 108 113 503 506 508 506 4 0 7 -229 8 -510z
m3883 -2 c0 -8 -486 -498 -493 -498 -3 0 -4 225 -4 500 l1 501 248 -248 c136
-136 247 -251 248 -255z m-365 -525 c-4 -10 -12 -34 -17 -53 -12 -41 -53 -148
-79 -207 -10 -24 -19 -45 -19 -47 0 -14 -99 -211 -138 -276 -43 -71 -161 -237
-193 -270 -8 -9 -34 -38 -59 -65 -101 -112 -260 -231 -422 -314 -144 -74 -221
-104 -348 -136 -179 -45 -253 -57 -465 -70 -33 -2 -76 -6 -95 -9 -19 -3 -55
-8 -80 -12 -86 -11 -295 -63 -360 -90 -105 -43 -136 -61 -190 -114 -109 -107
-121 -207 -45 -367 19 -41 35 -76 35 -79 0 -3 -12 8 -26 23 -71 76 -128 191
-137 275 -6 55 11 145 40 208 25 57 134 202 170 228 187 132 467 213 783 227
83 4 117 7 210 21 53 9 44 6 150 34 101 26 211 77 300 139 36 24 67 47 70 51
3 3 24 20 48 39 23 18 72 67 107 109 75 89 746 770 759 771 4 1 5 -7 1 -16z
m-2744 -923 l346 -354 -34 -37 -35 -37 -81 34 c-300 128 -512 292 -698 540
-97 128 -156 224 -219 356 -44 94 -150 359 -150 377 0 6 306 -302 871 -879z
m1612 -497 c8 -16 31 -55 51 -87 100 -165 109 -298 28 -446 -24 -43 -72 -103
-79 -97 -1 2 11 40 27 86 37 102 38 155 4 227 -44 92 -121 150 -288 214 l-70
27 27 27 c14 14 36 26 49 27 13 0 61 11 108 24 113 31 126 31 143 -2z"/>
<path d="M4307 6559 c-7 -4 -14 -24 -15 -43 -2 -33 0 -36 38 -46 38 -10 43 -9
60 12 24 28 24 33 4 63 -16 25 -56 31 -87 14z"/>
<path d="M2225 6439 c-16 -31 -16 -32 7 -56 21 -21 30 -23 59 -16 29 8 34 14
37 42 4 40 -2 47 -50 55 -34 6 -38 4 -53 -25z"/>
</g>
</svg>
