<?xml version="1.0" encoding="UTF-8" standalone="no"?>
<svg
   xmlns:dc="http://purl.org/dc/elements/1.1/"
   xmlns:cc="http://creativecommons.org/ns#"
   xmlns:rdf="http://www.w3.org/1999/02/22-rdf-syntax-ns#"
   xmlns:svg="http://www.w3.org/2000/svg"
   xmlns="http://www.w3.org/2000/svg"
   xmlns:sodipodi="http://sodipodi.sourceforge.net/DTD/sodipodi-0.dtd"
   xmlns:inkscape="http://www.inkscape.org/namespaces/inkscape"
   width="100%"
   height="100%"
   viewBox="0 0 800 800"
   version="1.1"
   xml:space="preserve"
   style="fill-rule:evenodd;clip-rule:evenodd;stroke-linejoin:round;stroke-miterlimit:1.41421;"
   id="svg3188"
   inkscape:version="0.91 r13725"
   sodipodi:docname="logo_avem_svg.svg"><metadata
     id="metadata3196"><rdf:RDF><cc:Work
         rdf:about=""><dc:format>image/svg+xml</dc:format><dc:type
           rdf:resource="http://purl.org/dc/dcmitype/StillImage" /></cc:Work></rdf:RDF></metadata><defs
     id="defs3194" /><sodipodi:namedview
     pagecolor="#ffffff"
     bordercolor="#666666"
     borderopacity="1"
     objecttolerance="10"
     gridtolerance="10"
     guidetolerance="10"
     inkscape:pageopacity="0"
     inkscape:pageshadow="2"
     inkscape:window-width="1301"
     inkscape:window-height="744"
     id="namedview3192"
     showgrid="false"
     inkscape:zoom="1.75"
     inkscape:cx="431.13595"
     inkscape:cy="701.84288"
     inkscape:window-x="65"
     inkscape:window-y="24"
     inkscape:window-maximized="1"
     inkscape:current-layer="svg3188" /><path
     d="m 324.754,712.692 c 5.475,-0.016 10.95,-0.008 16.425,0.008 6.836,20.686 14.408,41.113 21.03,61.871 3.283,-4.961 4.367,-10.916 6.384,-16.427 5.35,-15.126 10.405,-30.358 15.761,-45.484 5.428,0.024 10.847,0.016 16.275,0.04 -10.19,29.017 -19.993,58.179 -30.129,87.211 -5.213,0.008 -10.427,-0.032 -15.633,0.089 -10.159,-29.065 -19.954,-58.251 -30.113,-87.308 z m 161.033,0 c 5.875,-0.008 11.749,-0.016 17.623,-0.016 5.891,20.572 12.202,41.024 18.375,61.515 6.335,-20.475 12.613,-40.975 18.593,-61.555 5.793,0.105 11.587,0.024 17.389,0.048 5.3,29.008 9.559,58.203 14.842,87.219 -5.388,0.008 -10.778,0.024 -16.159,0.008 -2.982,-18.617 -6.408,-37.161 -9.406,-55.77 -5.955,18.536 -11.191,37.29 -17.114,55.835 -5.43,-0.105 -10.86,-0.033 -16.29,-0.081 -5.971,-18.528 -10.933,-37.363 -17.195,-55.795 -2.788,18.634 -6.303,37.154 -9.074,55.787 -5.365,0.032 -10.723,0.032 -16.08,0.024 4.646,-29.105 9.664,-58.146 14.496,-87.219 z m -239.759,87.227 c 10.997,-29.04 21.639,-58.21 32.612,-87.251 5.786,0.032 11.571,0.008 17.357,0.016 10.884,29.073 21.574,58.203 32.579,87.227 -5.64,-0.008 -11.28,0.041 -16.928,-0.024 -2.545,-6.214 -4.8,-12.541 -7.038,-18.868 -11.53,-0.048 -23.061,0 -34.584,-0.024 -2.383,6.303 -4.525,12.694 -7.11,18.924 -5.632,-0.008 -11.256,0 -16.888,0 z M 413.258,712.7 c 15.498,-0.016 30.996,-0.016 46.502,-0.008 l 0,16.427 c -10.051,0.025 -20.103,0 -30.155,0.017 -0.008,5.034 0,12.492 0,17.534 10.019,0.008 20.039,-0.008 30.058,0.008 0.106,5.487 0.097,10.981 0.097,16.484 -10.051,0.008 -20.103,-0.016 -30.155,0.008 0,7.571 -0.016,12.718 -0.016,20.29 10.051,0.008 20.103,-0.008 30.155,0.008 0.016,5.478 0.008,10.965 0.008,16.451 -15.498,0 -30.996,0 -46.502,-0.008 0.016,-29.073 0.008,-58.146 0.008,-87.211 z m -125.713,22.407 c -4.614,9.438 -7.2,19.684 -11.248,29.356 7.337,0.105 14.666,0.105 22.002,0 -3.757,-9.721 -7.215,-19.555 -10.754,-29.356 z M 384.775,6.666 c 4.557,-3.111 9.341,-6.642 15.11,-6.666 1.228,2.279 2.109,4.727 2.117,7.345 -12.815,8.63 -24.645,20.039 -30.026,34.842 -1.317,3.321 -2.012,6.901 -1.657,10.489 0.493,5.211 0.776,10.787 3.855,15.247 23.34156,28.527271 48.63418,56.98427 72.957,83.801 20.76753,25.25216 48.89652,68.34797 54.857,99.76 0.412,2.303 1.301,4.468 2.255,6.601 2.214,-5.591 2.513,-11.724 4.945,-17.259 3.006,-12.185 10.65,-22.657 19.627,-31.19 2.715,-2.537 6.254,-5.05 10.189,-4.25 3.685,1.397 3.37,7.191 0.178,8.993 -3.038,1.713 -5.705,4.056 -7.458,7.094 -2.004,3.483 -4.541,6.877 -5.034,10.965 -0.8,4.695 -0.728,9.479 -0.356,14.206 4.186,-4.162 8.056,-8.654 11.482,-13.478 4.614,-6.82 9.535,-13.519 12.719,-21.179 17.97023,-41.57345 20.33708,-88.88613 -8.646,-125.027 -5.745,-7.005 -12.428,-13.3 -20.072,-18.197 -2.901,2.659 -5.777,5.463 -9.236,7.386 -5.421,1.923 -11.7,2.343 -16.976,-0.275 -12.169,-5.704 -26.132,-5.478 -39.141,-3.442 -3.265,0.598 -6.036,-1.972 -8.016,-4.218 -1.099,-3.434 -2.796,-7.781 -0.186,-10.957 9.018,-12.338 23.409,-21.663 39.068,-21.502 6.053,-0.428 12.234,1.099 18.181,-0.573 2.764,-0.857 5.673,-0.372 8.493,-0.154 11.239,1.099 22.519,3.725 32.418,9.333 23.748,12.928 40.595,36.232 48.942,61.62 16.78407,41.72645 3.05686,103.0186 -16.743,140.59 -5.987,11.506 -13.744,21.93 -20.564,32.927 8.84,0.946 17.624,2.546 26.108,5.244 4.646,1.156 8.622,4 12.112,7.184 3.499,3.24 7.087,6.44 9.891,10.318 4.961,6.796 8.379,14.666 10.262,22.851 1.171,5.002 2.755,9.996 2.707,15.191 0.452,16.379 0.21,33.194 -5.228,48.846 9.316,9.745 19.223,18.924 28.305,28.903 -14.068,14.1 -28.023,28.298 -42.131,42.349 -2.367,2.457 -3.28,5.883 -4.573,8.961 -1.285,4.388 -2.933,8.67 -4.315,13.034 -1.972,7.28 -5.535,13.987 -8.097,21.065 -2.416,7.006 -6.44,13.292 -9.551,19.991 -1.608,3.62 -4.015,6.779 -5.987,10.197 -7.886,13.187 -18.124,24.791 -28.992,35.594 -4.59,4.363 -8.573,9.494 -14.197,12.613 -4.865,3.879 -9.786,7.806 -15.563,10.246 -2.949,1.14 -5.382,3.184 -8.088,4.76 -4.857,2.836 -10.02,5.244 -15.523,6.537 -2.844,0.678 -5.276,2.658 -6.149,5.502 4.485,3.855 6.812,9.382 10.02,14.206 2.383,3.644 3.919,7.789 4.775,12.055 0.986,4.493 2.707,9.115 1.592,13.761 -1.244,6.893 -1.883,14.52 -6.699,20.015 -2.464,3.434 -4.492,7.232 -7.644,10.133 -3.781,3.466 -7.102,7.523 -11.546,10.189 -3.2,1.915 -5.576,5.107 -9.228,6.238 -2.351,0.889 -4.46,2.271 -6.585,3.596 2.634,-5.075 6.666,-9.171 10.423,-13.389 5.454,-6.982 10.464,-14.472 13.559,-22.827 0.913,-2.384 0.574,-4.994 0.654,-7.483 -0.113,-2.682 0.421,-5.535 -0.856,-8.015 -1.681,-3.483 -2.392,-7.911 -5.931,-10.084 -2.772,-1.552 -5.575,-3.031 -8.242,-4.76 -4.266,-2.796 -9.171,-4.323 -13.769,-6.448 -3.006,-1.171 -6.311,-2.594 -9.559,-1.98 -5.769,6.101 -11.975,11.814 -17.607,18.036 -3.685,5.785 -9.284,9.882 -13.745,15.005 -10.31,-10.779 -21.178,-21.017 -31.359,-31.934 -13.422,2.715 -27.166,8.315 -35.497,19.708 -3.652,5.156 -3.345,12 -1.899,17.858 3.03,11.264 11.135,20.023 18.165,28.96 2.739,3.143 5.987,5.923 7.845,9.745 -2.577,-0.404 -5.47,-0.235 -7.66,-1.867 -10.754,-7.595 -21.76,-15.603 -28.927,-26.891 -2.166,-3.693 -4.509,-7.386 -5.616,-11.563 -1.471,-5.818 -3.272,-11.87 -1.883,-17.898 0.978,-4 1.576,-8.097 2.958,-11.983 1.64,-4.582 4.711,-8.42 6.868,-12.735 1.729,-4 5.373,-6.601 8.048,-9.914 -2.311,-2.36 -5.309,-3.847 -8.492,-4.614 -6.384,-1.568 -12.137,-4.913 -17.51,-8.606 -2.457,-1.697 -5.39,-2.464 -7.935,-4 -4.436,-2.464 -8.202,-5.906 -12.371,-8.759 -8.606,-6.1 -15.248,-14.407 -22.754,-21.711 -1.536,-1.447 -2.618,-3.273 -3.887,-4.937 -1.753,-2.287 -4.121,-4.024 -5.826,-6.352 -6.537,-9.502 -13.276,-18.956 -18.286,-29.396 -1.979,-4.395 -4.243,-8.662 -6.416,-12.953 -0.469,-3.434 -2.593,-6.246 -3.555,-9.518 -1.56,-4.97 -4.324,-9.47 -5.656,-14.52 -1.197,-4.647 -2.894,-9.139 -4.646,-13.6 -1.059,-2.585 -2.352,-5.139 -4.34,-7.135 -15.053,-15.069 -29.97,-30.268 -45.088,-45.274 12.226,-12.08 24.128,-24.475 36.434,-36.466 0.639,-0.711 1.633,-1.382 1.431,-2.489 0.274,-3.321 -1.278,-6.416 -1.196,-9.72 0.048,-5.972 -0.672,-11.967 0.048,-17.923 1.478,-8.258 0.962,-16.896 4.016,-24.838 1.915,-4.889 3.224,-10.141 6.375,-14.424 0.695,-0.824 1.463,-2.27 0.226,-3.022 -7.853,-6.141 -14.157,-13.947 -20.047,-21.914 -47.55377,-63.85158 -68.02754,-176.55055 7.523,-227.129 6.213,-3.814 12.371,-7.959 19.434,-10.077 7.288,-2.48 14.972,-3.264 22.552,-4.403 3.256,-0.469 6.391,0.824 9.607,1.05 7.58,0.453 15.216,-0.42 22.771,0.445 9.292,2.141 18.382,6.448 24.871,13.591 2.771,3.127 6.618,5.624 7.975,9.744 0.647,4.679 -1.01,10.634 -5.947,12.283 -5.939,2.117 -12.032,-0.776 -18.051,-0.703 -6.335,-0.413 -12.234,2.505 -18.496,2.787 -4.162,-0.008 -7.273,3.645 -11.426,3.709 -4.517,0.105 -9.219,0.138 -13.494,-1.495 -3.305,-1.713 -5.325,-5.317 -9.05,-6.343 -61.7094,49.45886 -49.37262,133.03841 1.39,184.498 5.503,6.036 12.387,10.577 19.328,14.771 1.64,-6.238 5.123,-11.765 6.909,-17.954 8.912,-20.92 18.875,-42.22 35.529,-58.187 3.248,-2.392 6.327,-5.438 10.302,-6.521 3.087,-0.856 4.582,2.61 6.214,4.517 -3.709,6.004 -8.662,11.264 -11.215,17.93 -2.344,6.077 -5.083,12.161 -5.592,18.739 -1.43,13.583 2.432,26.996 6.981,39.65 2.869,-4.452 5.107,-9.26 7.572,-13.939 3.878,-6.424 6.658,-13.421 9.518,-20.338 24.98181,-51.90257 21.39713,-86.02676 16.12,-138.012 -3.23477,-22.985894 1.69311,-40.25552 8.226,-59.148 5.6682,-16.391878 22.54383,-30.225837 34.996,-39.246 z m 139.208,527.831 c -5.883,6.012 -10.157,13.446 -16.452,19.069 -9.268,7.475 -18.471,15.41 -29.574,20.048 -4.953,1.891 -9.64,4.614 -14.973,5.365 -8.452,2.246 -16.992,4.557 -25.8,4.759 -3.046,-0.218 -5.818,1.479 -8.88,1.188 -12.274,-0.622 -24.37,1.899 -36.434,3.749 -5.859,0.72 -11.248,3.128 -16.775,5.026 -9.156,2.376 -17.074,7.766 -25.348,12.137 -5.996,3.022 -9.058,9.317 -12.961,14.431 -1.648,2.352 -4.137,4.138 -5.082,6.941 -1.681,4.445 -3.968,8.727 -4.59,13.503 -2.02,7.7 -0.598,16.08 3.087,23.069 3.353,6.917 7.7,13.502 13.68,18.439 -1.6,-3.474 -3.338,-6.86 -5.051,-10.278 -2.836,-5.115 -4.145,-10.941 -4.848,-16.694 1.131,-4.8 1.915,-10.036 5.212,-13.914 4.986,-6.658 11.838,-11.911 19.611,-14.884 8.726,-3.976 18.059,-6.464 27.481,-8.145 6.707,-1.551 13.43,-3.256 20.346,-3.418 4.905,-1.665 10.076,-0.582 15.086,-1.139 4.962,-1.794 10.287,-0.509 15.377,-1.519 8.686,-1.463 17.381,-3.006 25.922,-5.228 12.936,-3.241 25.315,-8.42 37.088,-14.634 11.337,-6.004 21.987,-13.34 31.409,-22.059 3.167,-2.432 6.221,-5.042 8.605,-8.274 2.723,-3.774 6.376,-6.739 9.188,-10.44 8.015,-10.278 15.57,-20.985 21.509,-32.612 6.069,-11.612 10.998,-23.765 15.717,-35.974 2.165,-5.317 3.151,-11.03 5.308,-16.354 -23.012,22.22 -45.112,45.346 -67.858,67.842 z m -71.43,79.583 c -3.434,0.218 -5.665,3.095 -7.854,5.381 9.292,3.556 18.811,6.958 27.012,12.719 6.311,4.824 10.682,12.201 11.781,20.071 0.396,8.711 -4.492,16.323 -7.046,24.346 6.941,-4.298 9.285,-12.427 13.002,-19.182 2.189,-6.909 2.108,-14.488 0.298,-21.478 -2.836,-9.995 -9.251,-18.35 -14.439,-27.19 -7.676,1.39 -14.965,4.501 -22.754,5.333 z M 227.871,472.747 c 3.354,8.315 6.166,16.823 9.47,25.154 3.564,7.588 6.497,15.466 10.594,22.803 6.545,12.12 14.294,23.602 23.045,34.228 4.476,3.959 7.547,9.187 11.91,13.244 5.083,4.024 9.786,8.508 14.949,12.427 6.626,5.212 14.044,9.276 21.356,13.422 7.798,4.403 16.274,7.353 24.427,10.989 2.368,-2.529 4.743,-5.058 7.046,-7.652 -18.827,-18.916 -37.598,-37.881 -56.425,-56.781 -3.596,-3.684 -7.458,-7.143 -10.577,-11.264 -2.198,-2.86 -4.59,-5.559 -7.248,-7.999 -16.266,-16.112 -32.063,-32.685 -48.547,-48.571 z m 83.373,-122.231 c -0.04,64.392 0.016,128.784 -0.016,193.184 16.702,16.832 33.453,33.631 50.098,50.527 3.425,-1.536 6.876,-3.014 10.343,-4.436 -0.194,-77.959 -0.073,-155.918 -0.057,-233.869 -7.531,-0.574 -15.199,1.075 -22.6,-1.034 -12.703,0.008 -25.316,-1.996 -37.768,-4.372 z m 148.589,-7.87 c -5.414,1.858 -11.191,2.19 -16.605,4.072 0.04,77.369 -0.024,154.738 0.032,232.099 9.907,-1.115 19.353,-4.403 28.766,-7.506 6.109,-2.19 12.08,-5.228 16.638,-9.947 5.405,-5.074 9.389,-11.45 14.851,-16.476 -0.016,-71.85 -0.113,-143.7 0.065,-215.55 -14.335,5.219 -28.936,9.656 -43.747,13.308 z m -229.692,29.727 c -14.609,14.828 -29.356,29.518 -43.948,44.353 17.501,17.365 34.785,34.956 52.215,52.401 -0.081,-34.584 0.17,-69.167 -0.138,-103.751 -3.143,1.794 -5.68,4.379 -8.129,6.997 z m 347.544,-5.68 c -0.017,33.719 0.105,67.438 -0.057,101.157 16.847,-16.815 33.444,-33.88 50.437,-50.55 -16.855,-16.807 -33.509,-33.816 -50.38,-50.607 z M 223.507,56.005 c -12.718,5.462 -23.845,14.294 -32.692,24.895 -2.982,3.515 -5.52,7.377 -8.364,11.006 -38.35633,58.09125 -17.40522,127.33462 15.434,181.492 2.682,4.064 4.71,8.589 7.967,12.257 3.458,4.033 7.588,7.45 10.924,11.604 3.645,4.492 8.84,7.304 12.905,11.361 6.287,6.238 14.286,10.237 21.842,14.69 9.09,4.29 17.76,9.631 27.432,12.597 5.64,1.834 11.175,3.943 16.791,5.842 17.203,4.63 34.762,8.331 52.603,9.163 9.163,0.097 18.325,-0.364 27.481,0 2.659,0.121 5.365,0.113 7.943,-0.638 5.325,-1.536 11.046,0.25 16.339,-1.471 3.547,-0.735 7.272,-0.307 10.762,-1.454 16.202,-2.255 32.508,-4.477 48.224,-9.139 6.674,-1.689 13.332,-3.475 19.95,-5.398 8.186,-3.175 16.775,-5.123 25.049,-8.072 8.654,-2.489 17.179,-5.495 26.067,-7.135 6.149,-1.075 12.323,-2.691 18.617,-2.166 5.446,0.396 10.779,1.738 15.999,3.273 5.673,1.665 10.051,5.866 14.173,9.898 1.398,1.269 1.98,3.119 2.667,4.824 3.345,8.905 3.943,18.577 3.498,28.007 8.218,8.492 16.67,16.75 24.92,25.218 2.634,-4.04 2.085,-9.155 3.16,-13.696 0.88,-3.313 0.905,-6.723 0.977,-10.116 2.796,-12.549 0.534,-25.486 -2.092,-37.865 -1.52,-5.47 -4.041,-10.601 -6.659,-15.611 -6.787,-12.355 -19.74,-20.386 -33.282,-23.352 -7.685,-2.06 -15.66,-0.485 -23.482,-1.067 -20.484,-0.169 -39.375,8.727 -58.703,14.214 -7.758,2.61 -15.862,4.008 -23.7,6.351 -12.363,3.668 -25.154,5.389 -37.8,7.725 -4.274,0.969 -8.71,0.719 -12.952,1.866 -6.271,0.17 -12.412,1.867 -18.706,1.632 -12.388,-0.129 -24.775,0.057 -37.162,-0.056 -3.789,-0.016 -7.482,-1.002 -11.256,-1.228 -6.609,-0.219 -12.977,-2.279 -19.538,-2.99 -10.892,-2.812 -22.011,-4.937 -32.467,-9.179 -18.754,-7.208 -36.781,-16.589 -52.643,-28.984 -59.51735,-43.20871 -68.07349,-126.18926 -25.72,-182.284 5.131,-7.297 12.864,-12.032 19.764,-17.446 -0.985,-3.959 -1.713,-8.856 1.771,-11.845 1.212,3.337 1.882,6.827 2.884,10.213 1.293,2.586 3.16,4.889 5.18,6.941 1.737,1.01 3.579,1.842 5.462,2.537 3.709,0.356 7.45,0.113 11.175,0.194 1.026,-0.905 1.859,-2.149 3.248,-2.513 12.589,-3.927 26.221,-5.325 39.158,-2.311 1.22,-1.22 2.424,-2.44 3.636,-3.668 -0.55,-2.529 -1.018,-5.252 -2.748,-7.289 -7.773,-8.686 -18.512,-15.401 -30.406,-15.934 -4.25,-0.21 -8.605,0.719 -12.767,-0.42 -3.684,-1.172 -7.603,-0.703 -11.401,-0.865 -10.165,-0.218 -20.12,2.61 -29.462,6.392 z m -6.011,276.128 c -0.598,4.065 -1.859,8.04 -1.738,12.202 0.122,3.03 -1.518,5.785 -1.308,8.831 0.282,6.974 -0.873,14.19 1.462,20.928 6.351,-6.569 12.977,-12.888 19.247,-19.538 1.325,-2.319 1.277,-5.22 2.595,-7.579 2.214,-4.121 3.305,-8.694 4.913,-13.058 1.115,-2.885 0.565,-6.044 0.743,-9.058 -1.794,-1.705 -3.353,-3.765 -5.64,-4.832 -4.339,-2.174 -8.477,-4.711 -12.461,-7.466 -3.886,5.899 -6.715,12.573 -7.813,19.57 z m 335.527,-11.894 c 1.964,4.17 5.802,6.901 8.768,10.303 6.65,7.442 11.87,16.007 18.407,23.546 0.315,-6.125 -0.009,-12.307 -1.35,-18.302 -0.485,-0.073 -1.462,-0.227 -1.955,-0.299 -1.107,-4.687 -4.881,-8.178 -8.961,-10.416 -4.606,-2.513 -9.535,-4.921 -14.909,-4.832 z M 352.632,113.634 c 12.20262,53.95239 -5.0613,94.83358 -22.423,143.32 -5.261,11.304 -11.798,21.954 -17.599,32.976 -2.457,3.749 -0.946,8.436 -1.479,12.621 6.424,3.604 13.842,4.695 20.968,6.133 7.297,0.865 14.513,2.473 21.874,2.796 5.915,0 11.676,1.826 17.615,1.495 -0.048,-77.401 0.065,-154.803 -0.057,-232.212 -4.015,-4.016 -7.191,-8.961 -8.629,-14.496 -1.422,-5.729 -2.877,-11.547 -2.691,-17.494 -8.7083,16.530499 -12.20491,48.499087 -7.579,64.861 z m 90.701,49.338 c -0.194,47.528 -0.065,95.057 -0.073,142.593 5.964,-0.04 11.58,-2.165 17.373,-3.232 13.817,-2.876 27.182,-7.426 40.725,-11.28 -1.212,-6.545 -2.004,-13.179 -4,-19.538 -10.17483,-39.12688 -28.0115,-79.7293 -54.025,-108.543 z M 475.994,42.236 c -5.867,1.398 -10.642,5.244 -15.466,8.646 -4.234,3.143 -8.452,7.409 -8.775,12.985 0.687,1.543 2.384,2.48 3.491,3.757 7.878,-1.737 16.007,-1.81 24.022,-1.285 5.196,1.043 10.359,2.263 15.458,3.717 1.341,0.372 2.141,1.625 3.159,2.497 3.443,-0.04 6.901,0.162 10.335,-0.178 4.662,-0.735 8.444,-4.226 10.601,-8.282 1.996,-3.321 1.851,-7.41 3.734,-10.787 4.088,2.4 2.052,7.547 1.85,11.32 4.242,3.063 8.331,6.335 12.484,9.511 4.056,3.022 6.48,7.579 9.915,11.199 27.21857,36.96977 29.41319,96.9242 4.912,134.432 -6.124,12.468 -15.037,23.264 -24.434,33.388 1.785,9.866 5.454,19.248 9.405,28.427 5.123,-0.816 10.254,-1.964 15.482,-1.665 3.975,-5.761 7.531,-11.797 11.684,-17.437 33.53532,-57.21444 42.45817,-96.96189 27.344,-157.227 -1.923,-5.381 -4.307,-10.593 -6.65,-15.805 -9.026,-15.175 -20.936,-29 -36.014,-38.398 -14.512,-9.114 -32.176,-13.17 -49.201,-11.037 -7.709,1.487 -15.733,-0.138 -23.336,2.222 z M 270.697,58.841 c 1.034,-1.867 2.069,-3.741 3.119,-5.608 2.998,0.194 5.947,0.808 8.808,1.721 -0.016,2.4 -0.008,4.808 0.04,7.208 -2.594,1.139 -5.446,2.262 -8.323,1.576 -1.624,-1.285 -2.505,-3.216 -3.644,-4.897 z M 479.476,45.387 c 2.214,-2.19 5.681,-2.19 8.622,-2.311 1.067,1.899 2.667,3.644 3.184,5.77 -1.002,1.769 -2.198,3.426 -3.386,5.082 -3.006,-0.04 -6.036,-0.452 -8.557,-2.198 0.057,-2.117 -0.04,-4.234 0.137,-6.343 z"
     style="fill:#030404"
     id="path3190"
     inkscape:connector-curvature="0"
     sodipodi:nodetypes="cccccccccccccccccccccccccccccccccccccccccccccccccccccccccccccccccccccccccccccccccccccccccccccccccccccccccccccccccccccccccccccccccccccccccccccccccccccccccccccccccccccccccccccccccscccccccccccccccccccccccccccccccccccccccccccccccccccccccccccccccccccccccccccccccccccccccccccccccccccccccccccccccccccccccccccccccccccccccccccccccccccccccccccccccccccccccccccccccccccccccccccccccccccccccccccc" /></svg>